<svg width="100" height="100" viewBox="0 0 100 100" fill="none" xmlns="http://www.w3.org/2000/svg"><path fill-rule="evenodd" clip-rule="evenodd" d="M50 100c27.614 0 50-22.386 50-50S77.614 0 50 0 0 22.386 0 50s22.386 50 50 50z" fill="#99C2E8"/><path fill-rule="evenodd" clip-rule="evenodd" d="M70.01 24.096H29.988c-1.651 0-2.988 1.348-2.988 3.013v50.879a3.023 3.023 0 001.09 2.323 2.959 2.959 0 001.898.69H70.01c1.652 0 2.99-1.35 2.99-3.013v-50.88c0-1.664-1.338-3.012-2.99-3.012z" fill="#59514B"/><path fill-rule="evenodd" clip-rule="evenodd" d="M31.258 36.642v37.665c0 1.351 1.065 2.447 2.38 2.447h31.87c1.314 0 2.38-1.096 2.38-2.447V30.79c0-1.351-1.066-2.447-2.38-2.447H40.076l-8.818 8.3z" fill="#fff"/><path fill-rule="evenodd" clip-rule="evenodd" d="M40.076 28.343v5.78a2.526 2.526 0 01-2.534 2.519h-6.284l8.818-8.3z" fill="#C6C2BF"/><path fill-rule="evenodd" clip-rule="evenodd" d="M50.426 26.043c-.52 0-.942-.434-.942-.973 0-.538.422-.975.942-.975.518 0 .941.437.941.975 0 .539-.423.973-.94.973zm5.815-3.982h-3.504v-.67c0-1.32-1.036-2.391-2.31-2.391-1.28 0-2.313 1.07-2.313 2.391v.67H44.61c-1.727 0-3.13 1.45-3.13 3.237v3.894h17.89v-3.894c0-1.787-1.402-3.237-3.129-3.237z" fill="#3E3832"/><path fill-rule="evenodd" clip-rule="evenodd" d="M55.102 68.39V50H42v3.61h2.899v14.78H42V72h16v-3.61h-2.898zM50 46.999a6 6 0 100-12 6 6 0 000 12z" fill="#59514B"/></svg>