<svg width="24" height="24" viewBox="0 0 24 24" fill="none" xmlns="http://www.w3.org/2000/svg"><path fill-rule="evenodd" clip-rule="evenodd" d="M12 0C5.382 0 0 5.382 0 12s5.382 12 12 12c6.617 0 12-5.382 12-12S18.617 0 12 0z" fill="#5690A2"/><path fill-rule="evenodd" clip-rule="evenodd" d="M13.565 6.565a1.565 1.565 0 10-3.131 0 1.565 1.565 0 003.131 0zM16.019 18c0-.56-.48-.99-1.044-.99h-1.898v-6.007c0-.56-.48-.991-1.043-.991h-2.03c-.564 0-1.043.43-1.043.991 0 .56.479.991 1.044.991h.985v5.015H9.391c-.564 0-1.043.431-1.043.991s.479.992 1.043.992h5.584c.564 0 1.044-.431 1.044-.992z" fill="#fff"/></svg>