<svg width="19" height="24" viewBox="0 0 19 24" fill="none" xmlns="http://www.w3.org/2000/svg">
<path fill-rule="evenodd" clip-rule="evenodd" d="M18.5 0H8.5C8.224 0 8 0.224 8 0.5V8H0.5C0.224 8 0 8.224 0 8.5V23.5C0 23.776 0.224 24 0.5 24H2.5H5.5H10.5H13.5H16.5H18.5C18.776 24 19 23.776 19 23.5V0.5C19 0.224 18.776 0 18.5 0ZM1 15H2.5C2.776 15 3 14.776 3 14.5C3 14.224 2.776 14 2.5 14H1V13H3.5C3.776 13 4 12.776 4 12.5C4 12.224 3.776 12 3.5 12H1V11H4.5C4.776 11 5 10.776 5 10.5C5 10.224 4.776 10 4.5 10H1V9H8.5H10V23H6V20.5C6 20.224 5.776 20 5.5 20H2.5C2.224 20 2 20.224 2 20.5V23H1V15ZM3 23V21H5V23H3ZM14 23V21H16V23H14ZM18 23H17V20.5C17 20.224 16.776 20 16.5 20H13.5C13.224 20 13 20.224 13 20.5V23H11V8.5C11 8.224 10.776 8 10.5 8H9V7H11.5C11.776 7 12 6.776 12 6.5C12 6.224 11.776 6 11.5 6H9V5H12.5C12.776 5 13 4.776 13 4.5C13 4.224 12.776 4 12.5 4H9V3H14.5C14.776 3 15 2.776 15 2.5C15 2.224 14.776 2 14.5 2H9V1H18V23Z" fill="#3E3832"/>
</svg>
