<svg width="42" height="32" viewBox="0 0 42 32" fill="none" xmlns="http://www.w3.org/2000/svg"><path fill="#E3B0A8" d="M3.23 0h38.769v20.8H3.23z"/><path fill="#F1D8D4" d="M33.922 0h4.846v20.8h-4.846z"/><path fill="#C2EAF7" d="M1.617 1.6h38.769v20.8H1.617z"/><path fill="#E0F5FB" d="M32.309 1.6h4.846v20.8h-4.846z"/><path fill="#9BD0B0" d="M0 3.2h38.769V24H0z"/><path fill="#CDE7D8" d="M30.691 3.2h4.846V24h-4.846z"/><path fill-rule="evenodd" clip-rule="evenodd" d="M4.848 12.695V6.51h.977l3.78 4.856V6.51h.912v6.185h-.976l-3.78-4.86v4.86h-.913zm6.98-3.012c0-1.027.32-1.83.962-2.411.642-.581 1.47-.872 2.484-.872.664 0 1.263.137 1.797.41.533.272.94.653 1.22 1.14.28.489.42 1.042.42 1.66a3.23 3.23 0 01-.443 1.684c-.294.495-.711.87-1.251 1.125a4.047 4.047 0 01-1.748.381c-.677 0-1.283-.14-1.816-.421a2.912 2.912 0 01-1.213-1.152 3.092 3.092 0 01-.412-1.544zm.982.012c0 .746.233 1.333.7 1.762.466.429 1.05.643 1.754.643.717 0 1.307-.216 1.77-.65.463-.433.694-1.047.694-1.843 0-.504-.099-.943-.297-1.319a2.08 2.08 0 00-.868-.873 2.649 2.649 0 00-1.284-.31c-.674 0-1.254.199-1.74.597-.486.398-.73 1.062-.73 1.993zm7.088 3V6.51h.953v3.067l3.573-3.067h1.291l-3.019 2.506 3.152 3.679H24.59l-2.562-3.13-1.178.987v2.143h-.953z" fill="#117938"/><path d="M8.079 32c3.568 0 6.461-2.865 6.461-6.4 0-3.534-2.893-6.4-6.461-6.4-3.569 0-6.462 2.866-6.462 6.4 0 3.535 2.893 6.4 6.462 6.4z" fill="#FFD399"/><path fill-rule="evenodd" clip-rule="evenodd" d="M12.922 27.2c0 2.65 2.17 4.8 4.846 4.8 2.677 0 4.846-2.15 4.846-4.8 0-2.651-2.17-4.8-4.846-4.8s-4.846 2.149-4.846 4.8zm6.461 0c0 .884-.723 1.6-1.615 1.6a1.608 1.608 0 01-1.615-1.6c0-.884.723-1.6 1.615-1.6s1.615.716 1.615 1.6z" fill="#E7E9E9"/></svg>