<svg width="22" height="22" viewBox="0 0 22 22" fill="none" xmlns="http://www.w3.org/2000/svg"><path fill-rule="evenodd" clip-rule="evenodd" d="M21.542 1.833h-3.209V.458A.458.458 0 0017.875 0h-2.75a.458.458 0 00-.458.458v1.375H7.333V.458A.458.458 0 006.875 0h-2.75a.458.458 0 00-.458.458v1.375H.458A.459.459 0 000 2.292v19.25c0 .253.205.458.458.458h21.084a.458.458 0 00.458-.458V2.292a.458.458 0 00-.458-.459zM15.583.917h1.834v2.75h-1.834V.917zm-9.166 0H4.583v2.75h1.834V.917zM3.667 2.75v1.375c0 .253.205.458.458.458h2.75a.458.458 0 00.458-.458V2.75h7.334v1.375c0 .253.205.458.458.458h2.75a.458.458 0 00.458-.458V2.75h2.75v3.667H.917V2.75h2.75zM.917 7.333v13.75h20.166V7.333H.917z" fill="#3E3832"/></svg>