<svg width="20" height="22" viewBox="0 0 20 22" fill="none" xmlns="http://www.w3.org/2000/svg"><path fill-rule="evenodd" clip-rule="evenodd" d="M17.677 16.318L13 14.647v-2.305c1.433-1.174 2.375-3.13 2.375-5.342 0-3.584-2.467-6.5-5.5-6.5s-5.5 2.916-5.5 6.5c0 2.338 1.053 4.385 2.625 5.531v2.117l-4.678 1.671A3.506 3.506 0 000 19.614V21.5a.5.5 0 00.5.5h19a.5.5 0 00.5-.5v-1.886a3.51 3.51 0 00-2.323-3.296zM9.875 1.5c2.204 0 4.039 1.947 4.423 4.507-.007.001-.011 0-.018.002-1.451.281-2.352-.192-3.206-1.687-.09-.159-.225-.25-.444-.252a.498.498 0 00-.434.269C9.736 5.224 8.183 6 6.875 6c-.509 0-.946-.084-1.376-.26.468-2.427 2.25-4.24 4.376-4.24zM5.375 7c0-.081.007-.16.01-.24.469.157.954.24 1.49.24 1.374 0 2.881-.653 3.735-1.55.797 1.109 1.737 1.635 2.931 1.635.263 0 .544-.034.834-.085 0 3.033-2.019 5.5-4.5 5.5s-4.5-2.467-4.5-5.5zM19 21H1v-1.386c0-1.054.667-2 1.659-2.354l5.009-1.789A.5.5 0 008 15v-1.897a4.728 4.728 0 001.875.397c.753 0 1.471-.181 2.125-.506V15a.5.5 0 00.332.471l5.008 1.789A2.506 2.506 0 0119 19.614V21z" fill="#3E3832"/></svg>