<svg width="80" height="80" viewBox="0 0 80 80" fill="none" xmlns="http://www.w3.org/2000/svg"><circle cx="40" cy="40" r="40" fill="#E0F5FB"/><circle cx="54" cy="47" r="16" fill="#FFD399"/><circle cx="54" cy="47" r="13" fill="#FFBD66"/><mask id="sommer_svg__a" maskUnits="userSpaceOnUse" x="0" y="0" width="80" height="80"><circle cx="40" cy="40" r="40" fill="#CCE1F3"/></mask><g mask="url(#sommer_svg__a)" fill-rule="evenodd" clip-rule="evenodd"><path d="M-10 48.065c42.443-6.795 37.938 21.71 104 7.074V80H-10V48.065z" fill="#6AB889"/><path d="M32.24 28.435a7.725 7.725 0 01-4.107-1.174 5.545 5.545 0 01-10.975.22 3.327 3.327 0 01-3.933-4.977A7.762 7.762 0 0113.76 7a7.756 7.756 0 016.603 3.681 5.546 5.546 0 0110.748 2.313A7.76 7.76 0 0140 20.674a7.76 7.76 0 01-7.76 7.76z" fill="#fff"/></g></svg>