<svg width="80" height="80" viewBox="0 0 80 80" fill="none" xmlns="http://www.w3.org/2000/svg">
<circle cx="40" cy="40" r="40" fill="#E0F5FB"/>
<circle cx="54" cy="47" r="16" fill="#FFD399"/>
<circle cx="54" cy="47" r="13" fill="#FFBD66"/>
<mask id="mask0" mask-type="alpha" maskUnits="userSpaceOnUse" x="0" y="0" width="80" height="80">
<circle cx="40" cy="40" r="40" fill="#CCE1F3"/>
</mask>
<g mask="url(#mask0)">
<path fill-rule="evenodd" clip-rule="evenodd" d="M-10 48.0654C32.4433 41.2701 27.938 69.7758 94 55.1387V80H-10V48.0654Z" fill="#6AB889"/>
<path fill-rule="evenodd" clip-rule="evenodd" d="M32.2391 28.4347C30.7314 28.4347 29.3242 28.005 28.1334 27.2613C27.8011 30.006 25.4641 32.132 22.6296 32.132C19.8723 32.132 17.5849 30.1182 17.1583 27.4801C16.7915 27.6194 16.3938 27.6956 15.9783 27.6956C14.142 27.6956 12.6522 26.2059 12.6522 24.3695C12.6522 23.678 12.8635 23.0357 13.2249 22.5035C9.18909 22.2282 6 18.8665 6 14.7609C6 10.4751 9.47509 7 13.7609 7C16.55 7 18.9958 8.47182 20.3639 10.6811C21.1289 8.53527 23.1789 7 25.5878 7C28.6482 7 31.1305 9.48069 31.1305 12.5427C31.1305 12.6947 31.1244 12.8453 31.1124 12.9942C31.4802 12.9407 31.8564 12.913 32.2391 12.913C36.5258 12.913 40 16.3872 40 20.6739C40 24.9606 36.5258 28.4347 32.2391 28.4347Z" fill="white"/>
</g>
</svg>