<svg width="20" height="20" viewBox="0 0 20 20" fill="none" xmlns="http://www.w3.org/2000/svg"><path fill-rule="evenodd" clip-rule="evenodd" d="M18.812 8.8c.22 0 .4.179.4.4 0 .973-.7 1.784-1.622 1.961-.146 2.358-1.707 4.398-3.978 5.519v2.52a.4.4 0 01-.8 0v-2.172a9.16 9.16 0 01-3.2.572 9.212 9.212 0 01-3.2-.573V19.2a.4.4 0 01-.8 0v-2.524c-1.419-.698-2.585-1.75-3.288-3.076H.412a.4.4 0 01-.4-.4V10c0-.221.179-.4.4-.4h1.325c.348-1.654 1.423-3.154 3.002-4.186a2.421 2.421 0 00-1.127-1.49.399.399 0 010-.693 3.215 3.215 0 011.6-.431c1.05 0 2.032.52 2.626 1.376A9.262 9.262 0 019.612 4c4.226 0 7.688 2.802 7.972 6.334.479-.157.828-.603.828-1.134 0-.221.179-.4.4-.4zM2.93 13.026C4.033 15.318 6.656 16.8 9.612 16.8c3.97 0 7.2-2.691 7.2-6 0-3.819-4.342-6.851-9.076-5.785a.4.4 0 01-.436-.194c-.526-.93-1.659-1.416-2.691-1.143.52.494.87 1.157.97 1.873a.402.402 0 01-.188.398c-1.615.977-2.68 2.476-2.924 4.11a.401.401 0 01-.396.34H.81v2.4H2.57c.154 0 .294.089.361.227zm6.255-7.011a.401.401 0 00-.373.426c.015.22.203.378.425.372a5.596 5.596 0 013.734 1.107.4.4 0 00.48-.64 6.413 6.413 0 00-4.266-1.265zM5.612 9.6a.8.8 0 11-1.6 0 .8.8 0 011.6 0z" fill="#3E3832"/></svg>