<svg width="20" height="20" viewBox="0 0 20 20" fill="none" xmlns="http://www.w3.org/2000/svg"><path fill-rule="evenodd" clip-rule="evenodd" d="M4.073 10.68a.414.414 0 00.542.235l1.936-.768a.415.415 0 00.229-.223l.302-.699.7.302a.416.416 0 00.319.005l3.485-1.381 2.388 6.025c-1.84.114-3.513.733-4.66 1.748a.417.417 0 10.554.623c1.096-.971 2.842-1.551 4.677-1.56.006.001.012.004.018.007a.045.045 0 00.02.006.18.18 0 00.045-.008.368.368 0 01.023-.005h4.932a.417.417 0 000-.834h-4.722l-2.5-6.308 3.486-1.383a.415.415 0 00.229-.222l.302-.698.7.301a.412.412 0 00.318.005l1.937-.766a.416.416 0 00.233-.54l-.306-.777C18.507 1.867 16.698.821 14.166.821c-1.308 0-2.771.297-4.255.841l-.16-.402a.416.416 0 10-.774.307l.158.398c-1.94.827-3.539 1.962-4.522 3.23-1.174 1.517-1.467 3.145-.847 4.71l.307.776zm1.2-4.973C6.23 4.47 7.845 3.358 9.824 2.575c1.52-.603 3.021-.92 4.34-.92 2.168 0 3.701.857 4.32 2.417l.155.388-1.39.55-.923-.398a.414.414 0 00-.547.217l-.4.922-3.711 1.472h-.002v.001h-.001l-3.71 1.472-.925-.4a.416.416 0 00-.549.217l-.399.923-1.388.55-.154-.388c-.639-1.611.045-3.006.731-3.891zm13.06 12.21c0 .704.673 1.25 1.25 1.25a.417.417 0 010 .833c-.664 0-1.28-.35-1.667-.867-.387.518-1.002.867-1.666.867-.664 0-1.28-.35-1.667-.867-.387.518-1.002.867-1.667.867-.664 0-1.279-.35-1.666-.867-.388.518-1.003.867-1.667.867-.664 0-1.28-.35-1.667-.867-.387.518-1.002.867-1.666.867-.664 0-1.28-.35-1.667-.867-.387.518-1.002.867-1.667.867-.675 0-1.3-.36-1.685-.892a2.507 2.507 0 01-.583.537.415.415 0 11-.463-.692c.313-.21.648-.593.648-1.036a.417.417 0 01.833 0c0 .704.673 1.25 1.25 1.25.578 0 1.25-.546 1.25-1.25a.417.417 0 01.834 0c0 .704.672 1.25 1.25 1.25.577 0 1.25-.546 1.25-1.25a.417.417 0 01.833 0c0 .704.673 1.25 1.25 1.25.578 0 1.25-.546 1.25-1.25a.417.417 0 01.833 0c0 .704.673 1.25 1.25 1.25.578 0 1.25-.546 1.25-1.25a.417.417 0 01.834 0c0 .704.672 1.25 1.25 1.25.577 0 1.25-.546 1.25-1.25a.417.417 0 01.833 0z" fill="#3E3832"/></svg>