<svg width="20" height="20" viewBox="0 0 20 20" fill="none" xmlns="http://www.w3.org/2000/svg"><path fill-rule="evenodd" clip-rule="evenodd" d="M13.333 5.833h4.584c1.149 0 2.083.936 2.083 2.084v10A2.086 2.086 0 0117.917 20H2.083A2.086 2.086 0 010 17.917v-10c0-1.148.934-2.083 2.083-2.083h4.584V5c0-.919.747-1.667 1.666-1.667h3.334c.919 0 1.666.748 1.666 1.667v.833zm-5-1.666A.834.834 0 007.5 5v.833h5V5a.834.834 0 00-.833-.833H8.333zm10.834 13.75c0 .689-.561 1.25-1.25 1.25H2.083c-.689 0-1.25-.561-1.25-1.25v-10c0-.69.561-1.25 1.25-1.25h15.834c.689 0 1.25.56 1.25 1.25v10zm-5.417-6.25h-2.083V9.584a.417.417 0 00-.417-.417h-2.5a.417.417 0 00-.417.417v2.083H6.25a.417.417 0 00-.417.417v2.5c0 .23.187.416.417.416h2.083v2.084c0 .23.187.416.417.416h2.5c.23 0 .417-.186.417-.416V15h2.083c.23 0 .417-.187.417-.416v-2.5a.417.417 0 00-.417-.417zm-.417 2.5H11.25a.417.417 0 00-.417.417v2.083H9.167v-2.084a.417.417 0 00-.417-.416H6.667V12.5H8.75c.23 0 .417-.187.417-.416V10h1.666v2.084c0 .23.187.416.417.416h2.083v1.667z" fill="#3E3832"/></svg>